<svg width="4000" height="578" viewBox="0 0 4000 578" fill="none" xmlns="http://www.w3.org/2000/svg">
<path d="M0 15.0368H564.284V562.939H329.658V214.191H233.716V562.939H0V15.0368Z" fill="white"/>
<path d="M673.414 15.0368H1062.18C1118.11 15.0368 1165.85 21.4025 1204.5 34.1338C1240.88 45.5011 1272.71 67.7809 1295.44 98.6999C1317.27 128.709 1328.18 168.722 1328.18 218.283C1328.18 267.39 1317.27 306.948 1295.9 337.412C1274.07 367.877 1243.61 390.611 1208.14 402.433C1171.31 415.619 1127.21 422.44 1076.73 422.44H901.219V562.939H673.869L673.414 15.0368ZM1075.37 258.751C1083.1 258.751 1090.37 256.932 1096.74 252.84C1103.11 248.748 1108.56 243.291 1112.2 236.471C1115.84 229.651 1118.11 221.466 1117.66 213.737C1117.66 206.462 1115.84 198.732 1111.75 192.366C1107.65 185.546 1102.2 180.09 1095.83 175.997C1089.47 171.905 1081.74 169.632 1074.01 169.632H901.219V259.206H1075.37V258.751Z" fill="white"/>
<path d="M1704.23 577.487C1641.49 577.487 1586.92 565.665 1540.09 542.021C1494.62 519.741 1457.33 484.73 1431.87 441.08C1406.41 397.43 1393.67 346.504 1393.67 288.304C1393.67 230.104 1406.41 179.633 1431.87 135.983C1457.33 92.7871 1495.07 57.776 1540.09 35.4961C1586.92 11.8522 1641.49 0.0302734 1704.23 0.0302734C1766.98 0.0302734 1821.55 11.8522 1868.38 35.4961C1913.85 57.776 1951.59 92.7871 1977.05 135.983C2002.52 179.178 2015.25 230.104 2015.25 287.849C2015.25 346.05 2002.52 396.52 1977.05 440.625C1951.59 484.276 1913.85 519.287 1868.38 541.567C1821.55 565.211 1766.53 577.487 1704.23 577.487ZM1703.78 362.419C1716.97 362.419 1729.7 359.236 1741.07 352.87C1751.98 346.504 1761.07 337.411 1767.44 326.498C1773.8 315.131 1777.44 301.945 1776.99 288.759C1776.99 275.573 1773.8 261.932 1767.44 250.565C1761.07 239.652 1751.98 230.104 1741.07 224.193C1729.7 217.827 1716.97 214.189 1703.78 214.644C1691.05 214.644 1678.32 217.827 1666.95 224.193C1656.04 230.558 1646.94 239.652 1640.58 250.565C1633.76 262.387 1630.57 275.573 1630.57 288.759C1630.57 301.945 1633.76 315.131 1640.58 326.498C1646.94 337.411 1656.04 346.504 1666.95 352.87C1678.32 358.781 1691.05 362.419 1703.78 362.419Z" fill="white"/>
<path d="M2379 577.943C2326.25 578.397 2273.96 566.575 2226.67 542.477C2181.66 519.742 2143.92 484.731 2117.54 441.535C2090.72 397.885 2077.07 346.96 2077.07 288.759C2077.07 230.559 2090.72 180.088 2117.54 136.438C2143.92 93.2425 2181.66 58.2313 2226.67 35.4968C2273.96 11.3982 2326.25 -0.423774 2379 0.0309167C2421.28 -0.423774 2463.57 4.12313 2504.95 14.581C2542.69 24.1295 2579.06 39.1343 2612.71 59.1407L2545.42 246.019C2524.5 236.925 2502.22 230.559 2479.94 226.921C2456.3 222.829 2432.65 220.556 2408.55 220.101C2390.82 219.646 2373.08 222.375 2356.72 228.286C2343.98 232.832 2332.62 240.562 2324.43 251.475C2316.7 262.842 2313.06 276.028 2313.52 289.214C2311.7 316.95 2329.43 342.413 2356.26 351.052C2373.08 356.963 2390.82 359.691 2408.55 359.236C2432.65 359.236 2456.75 356.963 2480.85 352.871C2503.13 349.233 2524.96 343.322 2545.87 334.683L2612.71 519.742C2568.15 546.114 2518.59 563.847 2467.21 572.032C2438.11 576.124 2408.55 578.397 2379 577.943Z" fill="white"/>
<path d="M2784.15 211.008H2663.2V15.0368H3137.45V211.008H3017.41V562.939H2783.69V211.008H2784.15Z" fill="white"/>
<path d="M3594.41 577.485C3505.74 577.485 3430.71 566.572 3370.69 544.747C3310.67 522.922 3265.2 490.639 3234.74 447.898C3204.27 405.157 3189.27 351.958 3189.27 288.302C3189.27 224.645 3204.27 171.446 3234.74 129.16C3265.2 86.4192 3310.22 54.1362 3370.69 32.7657C3431.17 11.3953 3505.74 0.482711 3594.41 0.482711C3683.53 0.482711 3758.1 11.3953 3818.57 32.7657C3879.05 54.1362 3924.06 86.4192 3954.53 129.16C3984.99 171.901 4000 225.1 4000 288.302C4000 351.504 3984.99 405.157 3954.53 447.898C3924.06 490.639 3879.05 522.922 3818.57 544.747C3758.1 566.572 3683.53 577.485 3594.41 577.485ZM3593.95 362.416C3624.87 362.871 3656.25 360.143 3686.71 353.777C3711.72 348.321 3730.36 339.682 3743.09 328.769C3765.37 310.127 3768.56 276.934 3750.37 254.655C3748.1 251.927 3745.82 249.653 3743.09 247.38C3730.36 236.467 3711.26 227.828 3686.71 222.372C3656.25 216.006 3625.33 213.278 3593.95 213.733C3563.03 213.278 3532.11 216.006 3502.1 222.372C3477.09 228.283 3458.45 236.467 3445.72 247.38C3423.44 266.022 3420.26 299.669 3439.35 321.949C3441.17 324.222 3443.45 326.496 3445.72 328.315C3458.45 339.682 3477.09 347.866 3502.1 353.323C3532.57 359.688 3563.03 362.871 3593.95 362.416Z" fill="white"/>
</svg>
